<mxfile host="Electron" modified="2024-02-15T15:12:35.966Z" agent="Mozilla/5.0 (Macintosh; Intel Mac OS X 10_15_7) AppleWebKit/537.36 (KHTML, like Gecko) draw.io/22.1.2 Chrome/114.0.5735.289 Electron/25.9.4 Safari/537.36" etag="HhclW4PGgEIt8yy4-nXu" version="22.1.2" type="device">
  <diagram name="Page-1" id="QuxXjtJ8OhPgKIQcrxMa">
    <mxGraphModel dx="1061" dy="774" grid="1" gridSize="10" guides="1" tooltips="1" connect="1" arrows="1" fold="1" page="1" pageScale="1" pageWidth="1169" pageHeight="827" math="0" shadow="0">
      <root>
        <mxCell id="0" />
        <mxCell id="1" parent="0" />
        <mxCell id="4sGJ2YAAaoAhloyrIJhy-109" value="" style="group" vertex="1" connectable="0" parent="1">
          <mxGeometry x="192" y="531" width="550" height="150" as="geometry" />
        </mxCell>
        <mxCell id="4sGJ2YAAaoAhloyrIJhy-12" value="" style="rounded=1;whiteSpace=wrap;html=1;" vertex="1" parent="4sGJ2YAAaoAhloyrIJhy-109">
          <mxGeometry width="550" height="150" as="geometry" />
        </mxCell>
        <mxCell id="4sGJ2YAAaoAhloyrIJhy-22" value="&lt;font style=&quot;font-size: 16px;&quot;&gt;Orchestration layer&lt;/font&gt;" style="text;html=1;strokeColor=none;fillColor=none;align=center;verticalAlign=middle;whiteSpace=wrap;rounded=0;" vertex="1" parent="4sGJ2YAAaoAhloyrIJhy-109">
          <mxGeometry width="160" height="30" as="geometry" />
        </mxCell>
        <mxCell id="4sGJ2YAAaoAhloyrIJhy-112" value="" style="rounded=0;whiteSpace=wrap;html=1;" vertex="1" parent="4sGJ2YAAaoAhloyrIJhy-109">
          <mxGeometry x="191.25" y="10" width="153.24" height="60" as="geometry" />
        </mxCell>
        <mxCell id="4sGJ2YAAaoAhloyrIJhy-113" value="&lt;font style=&quot;font-size: 16px;&quot;&gt;Sidecar&amp;nbsp;&lt;/font&gt;" style="rounded=0;whiteSpace=wrap;html=1;" vertex="1" parent="4sGJ2YAAaoAhloyrIJhy-109">
          <mxGeometry x="230.37" y="40" width="75" height="30" as="geometry" />
        </mxCell>
        <mxCell id="4sGJ2YAAaoAhloyrIJhy-114" value="&lt;span style=&quot;color: rgb(0, 0, 0); font-family: Helvetica; font-style: normal; font-variant-ligatures: normal; font-variant-caps: normal; font-weight: 400; letter-spacing: normal; orphans: 2; text-align: center; text-indent: 0px; text-transform: none; widows: 2; word-spacing: 0px; -webkit-text-stroke-width: 0px; background-color: rgb(251, 251, 251); text-decoration-thickness: initial; text-decoration-style: initial; text-decoration-color: initial; float: none; display: inline !important;&quot;&gt;&lt;font style=&quot;font-size: 16px;&quot;&gt;Gateway&lt;/font&gt;&lt;/span&gt;" style="text;whiteSpace=wrap;html=1;" vertex="1" parent="4sGJ2YAAaoAhloyrIJhy-109">
          <mxGeometry x="230.37" y="10" width="128.38" height="40" as="geometry" />
        </mxCell>
        <mxCell id="4sGJ2YAAaoAhloyrIJhy-119" value="" style="rounded=0;whiteSpace=wrap;html=1;" vertex="1" parent="4sGJ2YAAaoAhloyrIJhy-109">
          <mxGeometry x="358.75" y="80" width="153.24" height="60" as="geometry" />
        </mxCell>
        <mxCell id="4sGJ2YAAaoAhloyrIJhy-120" value="&lt;font style=&quot;font-size: 16px;&quot;&gt;Sidecar&amp;nbsp;&lt;/font&gt;" style="rounded=0;whiteSpace=wrap;html=1;" vertex="1" parent="4sGJ2YAAaoAhloyrIJhy-109">
          <mxGeometry x="397.87" y="110" width="75" height="30" as="geometry" />
        </mxCell>
        <mxCell id="4sGJ2YAAaoAhloyrIJhy-121" value="&lt;span style=&quot;color: rgb(0, 0, 0); font-family: Helvetica; font-style: normal; font-variant-ligatures: normal; font-variant-caps: normal; font-weight: 400; letter-spacing: normal; orphans: 2; text-align: center; text-indent: 0px; text-transform: none; widows: 2; word-spacing: 0px; -webkit-text-stroke-width: 0px; background-color: rgb(251, 251, 251); text-decoration-thickness: initial; text-decoration-style: initial; text-decoration-color: initial; float: none; display: inline !important;&quot;&gt;&lt;font style=&quot;font-size: 16px;&quot;&gt;Policy Evaluator&lt;/font&gt;&lt;/span&gt;" style="text;whiteSpace=wrap;html=1;" vertex="1" parent="4sGJ2YAAaoAhloyrIJhy-109">
          <mxGeometry x="388.75" y="80" width="128.38" height="40" as="geometry" />
        </mxCell>
        <mxCell id="4sGJ2YAAaoAhloyrIJhy-115" value="" style="rounded=0;whiteSpace=wrap;html=1;" vertex="1" parent="4sGJ2YAAaoAhloyrIJhy-109">
          <mxGeometry x="25" y="80" width="153.24" height="60" as="geometry" />
        </mxCell>
        <mxCell id="4sGJ2YAAaoAhloyrIJhy-116" value="&lt;font style=&quot;font-size: 16px;&quot;&gt;Sidecar&amp;nbsp;&lt;/font&gt;" style="rounded=0;whiteSpace=wrap;html=1;" vertex="1" parent="4sGJ2YAAaoAhloyrIJhy-109">
          <mxGeometry x="64.12" y="110" width="75" height="30" as="geometry" />
        </mxCell>
        <mxCell id="4sGJ2YAAaoAhloyrIJhy-117" value="&lt;span style=&quot;color: rgb(0, 0, 0); font-family: Helvetica; font-style: normal; font-variant-ligatures: normal; font-variant-caps: normal; font-weight: 400; letter-spacing: normal; orphans: 2; text-align: center; text-indent: 0px; text-transform: none; widows: 2; word-spacing: 0px; -webkit-text-stroke-width: 0px; background-color: rgb(251, 251, 251); text-decoration-thickness: initial; text-decoration-style: initial; text-decoration-color: initial; float: none; display: inline !important;&quot;&gt;&lt;font style=&quot;font-size: 16px;&quot;&gt;Orchestrator&lt;/font&gt;&lt;/span&gt;" style="text;whiteSpace=wrap;html=1;" vertex="1" parent="4sGJ2YAAaoAhloyrIJhy-109">
          <mxGeometry x="55" y="80" width="128.38" height="40" as="geometry" />
        </mxCell>
        <mxCell id="4sGJ2YAAaoAhloyrIJhy-103" value="" style="group" vertex="1" connectable="0" parent="1">
          <mxGeometry x="110" y="320" width="700" height="120" as="geometry" />
        </mxCell>
        <mxCell id="4sGJ2YAAaoAhloyrIJhy-10" value="" style="rounded=1;whiteSpace=wrap;html=1;" vertex="1" parent="4sGJ2YAAaoAhloyrIJhy-103">
          <mxGeometry width="700" height="120" as="geometry" />
        </mxCell>
        <mxCell id="4sGJ2YAAaoAhloyrIJhy-11" value="&lt;font style=&quot;font-size: 16px;&quot;&gt;Exchange layer&lt;/font&gt;" style="text;html=1;strokeColor=none;fillColor=none;align=center;verticalAlign=middle;whiteSpace=wrap;rounded=0;" vertex="1" parent="4sGJ2YAAaoAhloyrIJhy-103">
          <mxGeometry x="1" y="3" width="130" height="30" as="geometry" />
        </mxCell>
        <mxCell id="4sGJ2YAAaoAhloyrIJhy-101" value="" style="group" vertex="1" connectable="0" parent="4sGJ2YAAaoAhloyrIJhy-103">
          <mxGeometry x="510" y="10" width="130" height="110" as="geometry" />
        </mxCell>
        <mxCell id="4sGJ2YAAaoAhloyrIJhy-13" value="" style="shape=cylinder3;whiteSpace=wrap;html=1;boundedLbl=1;backgroundOutline=1;size=15;" vertex="1" parent="4sGJ2YAAaoAhloyrIJhy-101">
          <mxGeometry x="35" width="60" height="80" as="geometry" />
        </mxCell>
        <mxCell id="4sGJ2YAAaoAhloyrIJhy-21" value="&lt;font style=&quot;font-size: 16px;&quot;&gt;Knowledge Base&lt;/font&gt;" style="text;html=1;strokeColor=none;fillColor=none;align=center;verticalAlign=middle;whiteSpace=wrap;rounded=0;" vertex="1" parent="4sGJ2YAAaoAhloyrIJhy-101">
          <mxGeometry y="80" width="130" height="30" as="geometry" />
        </mxCell>
        <mxCell id="4sGJ2YAAaoAhloyrIJhy-102" value="" style="group" vertex="1" connectable="0" parent="4sGJ2YAAaoAhloyrIJhy-103">
          <mxGeometry x="170" y="40" width="264" height="59" as="geometry" />
        </mxCell>
        <mxCell id="4sGJ2YAAaoAhloyrIJhy-62" value="" style="shape=cylinder3;whiteSpace=wrap;html=1;boundedLbl=1;backgroundOutline=1;size=15;rotation=90;" vertex="1" parent="4sGJ2YAAaoAhloyrIJhy-102">
          <mxGeometry x="118" y="-118" width="28" height="264" as="geometry" />
        </mxCell>
        <mxCell id="4sGJ2YAAaoAhloyrIJhy-63" value="&lt;font style=&quot;font-size: 16px;&quot;&gt;Messaging service&lt;/font&gt;" style="text;html=1;align=center;verticalAlign=middle;resizable=0;points=[];autosize=1;strokeColor=none;fillColor=none;" vertex="1" parent="4sGJ2YAAaoAhloyrIJhy-102">
          <mxGeometry x="52" y="29" width="160" height="30" as="geometry" />
        </mxCell>
        <mxCell id="4sGJ2YAAaoAhloyrIJhy-28" style="edgeStyle=orthogonalEdgeStyle;rounded=0;orthogonalLoop=1;jettySize=auto;html=1;startArrow=classic;startFill=1;" edge="1" parent="1" source="4sGJ2YAAaoAhloyrIJhy-112" target="4sGJ2YAAaoAhloyrIJhy-10">
          <mxGeometry relative="1" as="geometry" />
        </mxCell>
        <mxCell id="4sGJ2YAAaoAhloyrIJhy-14" value="" style="group" vertex="1" connectable="0" parent="1">
          <mxGeometry x="30" y="20" width="250" height="200" as="geometry" />
        </mxCell>
        <mxCell id="4sGJ2YAAaoAhloyrIJhy-25" value="" style="rounded=0;whiteSpace=wrap;html=1;" vertex="1" parent="4sGJ2YAAaoAhloyrIJhy-14">
          <mxGeometry width="250" height="200" as="geometry" />
        </mxCell>
        <mxCell id="4sGJ2YAAaoAhloyrIJhy-3" value="" style="rounded=0;whiteSpace=wrap;html=1;" vertex="1" parent="4sGJ2YAAaoAhloyrIJhy-14">
          <mxGeometry x="48.38" y="140" width="153.24" height="60" as="geometry" />
        </mxCell>
        <mxCell id="4sGJ2YAAaoAhloyrIJhy-23" value="&lt;font style=&quot;font-size: 16px;&quot;&gt;Sidecar&amp;nbsp;&lt;/font&gt;" style="rounded=0;whiteSpace=wrap;html=1;" vertex="1" parent="4sGJ2YAAaoAhloyrIJhy-14">
          <mxGeometry x="87.5" y="170" width="75" height="30" as="geometry" />
        </mxCell>
        <mxCell id="4sGJ2YAAaoAhloyrIJhy-32" value="&lt;font style=&quot;font-size: 14px;&quot;&gt;Data-exchange&lt;br&gt;jobs&lt;/font&gt;" style="sketch=0;outlineConnect=0;fontColor=#232F3E;gradientColor=none;fillColor=#000000;strokeColor=none;dashed=0;verticalLabelPosition=bottom;verticalAlign=top;align=center;html=1;fontSize=12;fontStyle=0;aspect=fixed;pointerEvents=1;shape=mxgraph.aws4.iot_device_jobs_resource;strokeWidth=1;" vertex="1" parent="4sGJ2YAAaoAhloyrIJhy-14">
          <mxGeometry x="167.62" y="47.92" width="34" height="41.44" as="geometry" />
        </mxCell>
        <mxCell id="4sGJ2YAAaoAhloyrIJhy-33" value="&lt;span style=&quot;color: rgb(0, 0, 0); font-family: Helvetica; font-style: normal; font-variant-ligatures: normal; font-variant-caps: normal; font-weight: 400; letter-spacing: normal; orphans: 2; text-align: center; text-indent: 0px; text-transform: none; widows: 2; word-spacing: 0px; -webkit-text-stroke-width: 0px; background-color: rgb(251, 251, 251); text-decoration-thickness: initial; text-decoration-style: initial; text-decoration-color: initial; float: none; display: inline !important;&quot;&gt;&lt;font style=&quot;font-size: 16px;&quot;&gt;Data Space member X&lt;/font&gt;&lt;/span&gt;" style="text;whiteSpace=wrap;html=1;" vertex="1" parent="4sGJ2YAAaoAhloyrIJhy-14">
          <mxGeometry width="180" height="40" as="geometry" />
        </mxCell>
        <mxCell id="4sGJ2YAAaoAhloyrIJhy-34" value="&lt;font style=&quot;font-size: 14px;&quot;&gt;Data-exchange&lt;br&gt;jobs&lt;/font&gt;" style="sketch=0;outlineConnect=0;fontColor=#232F3E;gradientColor=none;fillColor=#000000;strokeColor=none;dashed=0;verticalLabelPosition=bottom;verticalAlign=top;align=center;html=1;fontSize=12;fontStyle=0;aspect=fixed;pointerEvents=1;shape=mxgraph.aws4.iot_device_jobs_resource;strokeWidth=1;" vertex="1" parent="4sGJ2YAAaoAhloyrIJhy-14">
          <mxGeometry x="50" y="43.650000000000006" width="37.5" height="45.71" as="geometry" />
        </mxCell>
        <mxCell id="4sGJ2YAAaoAhloyrIJhy-35" value="&lt;span style=&quot;color: rgb(0, 0, 0); font-family: Helvetica; font-style: normal; font-variant-ligatures: normal; font-variant-caps: normal; font-weight: 400; letter-spacing: normal; orphans: 2; text-align: center; text-indent: 0px; text-transform: none; widows: 2; word-spacing: 0px; -webkit-text-stroke-width: 0px; background-color: rgb(251, 251, 251); text-decoration-thickness: initial; text-decoration-style: initial; text-decoration-color: initial; float: none; display: inline !important;&quot;&gt;&lt;font style=&quot;font-size: 16px;&quot;&gt;Distributed Agent&lt;/font&gt;&lt;/span&gt;" style="text;whiteSpace=wrap;html=1;" vertex="1" parent="4sGJ2YAAaoAhloyrIJhy-14">
          <mxGeometry x="65.62" y="140" width="128.38" height="40" as="geometry" />
        </mxCell>
        <mxCell id="4sGJ2YAAaoAhloyrIJhy-24" style="edgeStyle=orthogonalEdgeStyle;rounded=0;orthogonalLoop=1;jettySize=auto;html=1;startArrow=classic;startFill=1;" edge="1" parent="1" source="4sGJ2YAAaoAhloyrIJhy-23" target="4sGJ2YAAaoAhloyrIJhy-10">
          <mxGeometry relative="1" as="geometry" />
        </mxCell>
        <mxCell id="4sGJ2YAAaoAhloyrIJhy-29" value="" style="endArrow=none;html=1;rounded=0;strokeWidth=2;entryX=0.75;entryY=0;entryDx=0;entryDy=0;" edge="1" parent="1" target="4sGJ2YAAaoAhloyrIJhy-30">
          <mxGeometry width="50" height="50" relative="1" as="geometry">
            <mxPoint x="50" y="480" as="sourcePoint" />
            <mxPoint x="960" y="480" as="targetPoint" />
          </mxGeometry>
        </mxCell>
        <mxCell id="4sGJ2YAAaoAhloyrIJhy-30" value="&lt;font style=&quot;font-size: 16px;&quot;&gt;Control plane&lt;/font&gt;" style="text;html=1;strokeColor=none;fillColor=none;align=center;verticalAlign=middle;whiteSpace=wrap;rounded=0;" vertex="1" parent="1">
          <mxGeometry x="790" y="480" width="130" height="30" as="geometry" />
        </mxCell>
        <mxCell id="4sGJ2YAAaoAhloyrIJhy-31" value="&lt;font style=&quot;font-size: 16px;&quot;&gt;Data plane&lt;/font&gt;" style="text;html=1;strokeColor=none;fillColor=none;align=center;verticalAlign=middle;whiteSpace=wrap;rounded=0;" vertex="1" parent="1">
          <mxGeometry x="800" y="450" width="130" height="30" as="geometry" />
        </mxCell>
        <mxCell id="4sGJ2YAAaoAhloyrIJhy-84" value="" style="group" vertex="1" connectable="0" parent="1">
          <mxGeometry x="335" y="20" width="250" height="200" as="geometry" />
        </mxCell>
        <mxCell id="4sGJ2YAAaoAhloyrIJhy-85" value="" style="rounded=0;whiteSpace=wrap;html=1;" vertex="1" parent="4sGJ2YAAaoAhloyrIJhy-84">
          <mxGeometry width="250" height="200" as="geometry" />
        </mxCell>
        <mxCell id="4sGJ2YAAaoAhloyrIJhy-86" value="" style="rounded=0;whiteSpace=wrap;html=1;" vertex="1" parent="4sGJ2YAAaoAhloyrIJhy-84">
          <mxGeometry x="48.38" y="140" width="153.24" height="60" as="geometry" />
        </mxCell>
        <mxCell id="4sGJ2YAAaoAhloyrIJhy-87" value="&lt;font style=&quot;font-size: 16px;&quot;&gt;Sidecar&amp;nbsp;&lt;/font&gt;" style="rounded=0;whiteSpace=wrap;html=1;" vertex="1" parent="4sGJ2YAAaoAhloyrIJhy-84">
          <mxGeometry x="87.5" y="170" width="75" height="30" as="geometry" />
        </mxCell>
        <mxCell id="4sGJ2YAAaoAhloyrIJhy-88" value="&lt;font style=&quot;font-size: 14px;&quot;&gt;Data-exchange&lt;br&gt;jobs&lt;/font&gt;" style="sketch=0;outlineConnect=0;fontColor=#232F3E;gradientColor=none;fillColor=#000000;strokeColor=none;dashed=0;verticalLabelPosition=bottom;verticalAlign=top;align=center;html=1;fontSize=12;fontStyle=0;aspect=fixed;pointerEvents=1;shape=mxgraph.aws4.iot_device_jobs_resource;strokeWidth=1;" vertex="1" parent="4sGJ2YAAaoAhloyrIJhy-84">
          <mxGeometry x="167.62" y="47.92" width="34" height="41.44" as="geometry" />
        </mxCell>
        <mxCell id="4sGJ2YAAaoAhloyrIJhy-89" value="&lt;span style=&quot;color: rgb(0, 0, 0); font-family: Helvetica; font-style: normal; font-variant-ligatures: normal; font-variant-caps: normal; font-weight: 400; letter-spacing: normal; orphans: 2; text-align: center; text-indent: 0px; text-transform: none; widows: 2; word-spacing: 0px; -webkit-text-stroke-width: 0px; background-color: rgb(251, 251, 251); text-decoration-thickness: initial; text-decoration-style: initial; text-decoration-color: initial; float: none; display: inline !important;&quot;&gt;&lt;font style=&quot;font-size: 16px;&quot;&gt;Data Space member Y&lt;/font&gt;&lt;/span&gt;" style="text;whiteSpace=wrap;html=1;" vertex="1" parent="4sGJ2YAAaoAhloyrIJhy-84">
          <mxGeometry width="180" height="40" as="geometry" />
        </mxCell>
        <mxCell id="4sGJ2YAAaoAhloyrIJhy-90" value="&lt;font style=&quot;font-size: 14px;&quot;&gt;Data-exchange&lt;br&gt;jobs&lt;/font&gt;" style="sketch=0;outlineConnect=0;fontColor=#232F3E;gradientColor=none;fillColor=#000000;strokeColor=none;dashed=0;verticalLabelPosition=bottom;verticalAlign=top;align=center;html=1;fontSize=12;fontStyle=0;aspect=fixed;pointerEvents=1;shape=mxgraph.aws4.iot_device_jobs_resource;strokeWidth=1;" vertex="1" parent="4sGJ2YAAaoAhloyrIJhy-84">
          <mxGeometry x="48.38" y="43.650000000000006" width="37.5" height="45.71" as="geometry" />
        </mxCell>
        <mxCell id="4sGJ2YAAaoAhloyrIJhy-91" value="&lt;span style=&quot;color: rgb(0, 0, 0); font-family: Helvetica; font-style: normal; font-variant-ligatures: normal; font-variant-caps: normal; font-weight: 400; letter-spacing: normal; orphans: 2; text-align: center; text-indent: 0px; text-transform: none; widows: 2; word-spacing: 0px; -webkit-text-stroke-width: 0px; background-color: rgb(251, 251, 251); text-decoration-thickness: initial; text-decoration-style: initial; text-decoration-color: initial; float: none; display: inline !important;&quot;&gt;&lt;font style=&quot;font-size: 16px;&quot;&gt;Distributed Agent&lt;/font&gt;&lt;/span&gt;" style="text;whiteSpace=wrap;html=1;" vertex="1" parent="4sGJ2YAAaoAhloyrIJhy-84">
          <mxGeometry x="65.62" y="140" width="128.38" height="40" as="geometry" />
        </mxCell>
        <mxCell id="4sGJ2YAAaoAhloyrIJhy-93" value="" style="group" vertex="1" connectable="0" parent="1">
          <mxGeometry x="650" y="20" width="250" height="200" as="geometry" />
        </mxCell>
        <mxCell id="4sGJ2YAAaoAhloyrIJhy-94" value="" style="rounded=0;whiteSpace=wrap;html=1;" vertex="1" parent="4sGJ2YAAaoAhloyrIJhy-93">
          <mxGeometry width="250" height="200" as="geometry" />
        </mxCell>
        <mxCell id="4sGJ2YAAaoAhloyrIJhy-95" value="" style="rounded=0;whiteSpace=wrap;html=1;" vertex="1" parent="4sGJ2YAAaoAhloyrIJhy-93">
          <mxGeometry x="48.38" y="140" width="153.24" height="60" as="geometry" />
        </mxCell>
        <mxCell id="4sGJ2YAAaoAhloyrIJhy-96" value="&lt;font style=&quot;font-size: 16px;&quot;&gt;Sidecar&amp;nbsp;&lt;/font&gt;" style="rounded=0;whiteSpace=wrap;html=1;" vertex="1" parent="4sGJ2YAAaoAhloyrIJhy-93">
          <mxGeometry x="87.5" y="170" width="75" height="30" as="geometry" />
        </mxCell>
        <mxCell id="4sGJ2YAAaoAhloyrIJhy-97" value="&lt;font style=&quot;font-size: 14px;&quot;&gt;Data-exchange&lt;br&gt;jobs&lt;/font&gt;" style="sketch=0;outlineConnect=0;fontColor=#232F3E;gradientColor=none;fillColor=#000000;strokeColor=none;dashed=0;verticalLabelPosition=bottom;verticalAlign=top;align=center;html=1;fontSize=12;fontStyle=0;aspect=fixed;pointerEvents=1;shape=mxgraph.aws4.iot_device_jobs_resource;strokeWidth=1;" vertex="1" parent="4sGJ2YAAaoAhloyrIJhy-93">
          <mxGeometry x="167.62" y="47.92" width="34" height="41.44" as="geometry" />
        </mxCell>
        <mxCell id="4sGJ2YAAaoAhloyrIJhy-98" value="&lt;span style=&quot;color: rgb(0, 0, 0); font-family: Helvetica; font-style: normal; font-variant-ligatures: normal; font-variant-caps: normal; font-weight: 400; letter-spacing: normal; orphans: 2; text-align: center; text-indent: 0px; text-transform: none; widows: 2; word-spacing: 0px; -webkit-text-stroke-width: 0px; background-color: rgb(251, 251, 251); text-decoration-thickness: initial; text-decoration-style: initial; text-decoration-color: initial; float: none; display: inline !important;&quot;&gt;&lt;font style=&quot;font-size: 16px;&quot;&gt;Data Space member Z&lt;/font&gt;&lt;/span&gt;" style="text;whiteSpace=wrap;html=1;" vertex="1" parent="4sGJ2YAAaoAhloyrIJhy-93">
          <mxGeometry width="180" height="40" as="geometry" />
        </mxCell>
        <mxCell id="4sGJ2YAAaoAhloyrIJhy-99" value="&lt;font style=&quot;font-size: 14px;&quot;&gt;Data-exchange&lt;br&gt;jobs&lt;/font&gt;" style="sketch=0;outlineConnect=0;fontColor=#232F3E;gradientColor=none;fillColor=#000000;strokeColor=none;dashed=0;verticalLabelPosition=bottom;verticalAlign=top;align=center;html=1;fontSize=12;fontStyle=0;aspect=fixed;pointerEvents=1;shape=mxgraph.aws4.iot_device_jobs_resource;strokeWidth=1;" vertex="1" parent="4sGJ2YAAaoAhloyrIJhy-93">
          <mxGeometry x="50" y="43.650000000000006" width="37.5" height="45.71" as="geometry" />
        </mxCell>
        <mxCell id="4sGJ2YAAaoAhloyrIJhy-100" value="&lt;span style=&quot;color: rgb(0, 0, 0); font-family: Helvetica; font-style: normal; font-variant-ligatures: normal; font-variant-caps: normal; font-weight: 400; letter-spacing: normal; orphans: 2; text-align: center; text-indent: 0px; text-transform: none; widows: 2; word-spacing: 0px; -webkit-text-stroke-width: 0px; background-color: rgb(251, 251, 251); text-decoration-thickness: initial; text-decoration-style: initial; text-decoration-color: initial; float: none; display: inline !important;&quot;&gt;&lt;font style=&quot;font-size: 16px;&quot;&gt;Distributed Agent&lt;/font&gt;&lt;/span&gt;" style="text;whiteSpace=wrap;html=1;" vertex="1" parent="4sGJ2YAAaoAhloyrIJhy-93">
          <mxGeometry x="65.62" y="140" width="128.38" height="40" as="geometry" />
        </mxCell>
        <mxCell id="4sGJ2YAAaoAhloyrIJhy-104" style="edgeStyle=orthogonalEdgeStyle;rounded=0;orthogonalLoop=1;jettySize=auto;html=1;startArrow=classic;startFill=1;" edge="1" parent="1" source="4sGJ2YAAaoAhloyrIJhy-87" target="4sGJ2YAAaoAhloyrIJhy-10">
          <mxGeometry relative="1" as="geometry" />
        </mxCell>
        <mxCell id="4sGJ2YAAaoAhloyrIJhy-105" style="edgeStyle=orthogonalEdgeStyle;rounded=0;orthogonalLoop=1;jettySize=auto;html=1;startArrow=classic;startFill=1;" edge="1" parent="1" source="4sGJ2YAAaoAhloyrIJhy-94" target="4sGJ2YAAaoAhloyrIJhy-10">
          <mxGeometry relative="1" as="geometry" />
        </mxCell>
        <mxCell id="4sGJ2YAAaoAhloyrIJhy-106" value="&lt;font style=&quot;font-size: 16px;&quot;&gt;Protobuf interface&lt;/font&gt;" style="text;html=1;strokeColor=none;fillColor=none;align=center;verticalAlign=middle;whiteSpace=wrap;rounded=0;" vertex="1" parent="1">
          <mxGeometry x="396" y="280" width="130" height="30" as="geometry" />
        </mxCell>
        <mxCell id="4sGJ2YAAaoAhloyrIJhy-108" value="&lt;font style=&quot;font-size: 16px;&quot;&gt;Protobuf interface&lt;/font&gt;" style="text;html=1;strokeColor=none;fillColor=none;align=center;verticalAlign=middle;whiteSpace=wrap;rounded=0;" vertex="1" parent="1">
          <mxGeometry x="396" y="500" width="130" height="30" as="geometry" />
        </mxCell>
      </root>
    </mxGraphModel>
  </diagram>
</mxfile>
